<svg id="visual" viewBox="0 0 960 540" width="960" height="540" xmlns="http://www.w3.org/2000/svg" xmlns:xlink="http://www.w3.org/1999/xlink" version="1.1"><rect x="0" y="0" width="960" height="540" fill="#121212"></rect><defs><linearGradient id="grad1_0" x1="43.8%" y1="100%" x2="100%" y2="0%"><stop offset="14.444444444444446%" stop-color="#121212" stop-opacity="1"></stop><stop offset="85.55555555555554%" stop-color="#121212" stop-opacity="1"></stop></linearGradient></defs><defs><linearGradient id="grad2_0" x1="0%" y1="100%" x2="56.3%" y2="0%"><stop offset="14.444444444444446%" stop-color="#121212" stop-opacity="1"></stop><stop offset="85.55555555555554%" stop-color="#121212" stop-opacity="1"></stop></linearGradient></defs><g transform="translate(960, 540)"><path d="M-324 0C-323.4 -46 -322.9 -92 -299.3 -124C-275.8 -156 -229.3 -174.1 -195.2 -195.2C-161 -216.3 -139.2 -240.4 -108.7 -262.4C-78.2 -284.4 -39.1 -304.2 0 -324L0 0Z" fill="#FF69B4"></path></g><g transform="translate(0, 0)"><path d="M324 0C290.8 30.5 257.6 60.9 246.7 102.2C235.8 143.4 247.1 195.4 229.1 229.1C211.1 262.8 163.6 278.3 120.5 291C77.5 303.8 38.7 313.9 0 324L0 0Z" fill="#FF69B4"></path></g></svg>