<svg id="visual" viewBox="0 0 960 540" width="960" height="540" xmlns="http://www.w3.org/2000/svg" xmlns:xlink="http://www.w3.org/1999/xlink" version="1.1"><rect width="960" height="540" fill="#121212"></rect><g><g transform="translate(691 107)"><path d="M0 -144L137 -44.5L84.7 116.5L-84.7 116.5L-137 -44.5Z" fill="none" stroke="#a3e635" stroke-width="2"></path></g><g transform="translate(378 425)"><path d="M0 -114L108.4 -35.2L67 92.2L-67 92.2L-108.4 -35.2Z" fill="none" stroke="#a3e635" stroke-width="2"></path></g><g transform="translate(849 481)"><path d="M0 -84L79.9 -26L49.4 68L-49.4 68L-79.9 -26Z" fill="none" stroke="#a3e635" stroke-width="2"></path></g><g transform="translate(123 110)"><path d="M0 -76L72.3 -23.5L44.7 61.5L-44.7 61.5L-72.3 -23.5Z" stroke="#a3e635" fill="none" stroke-width="2"></path></g><g transform="translate(10 497)"><path d="M0 -93L88.4 -28.7L54.7 75.2L-54.7 75.2L-88.4 -28.7Z" stroke="#a3e635" fill="none" stroke-width="2"></path></g></g></svg>