<svg id="visual" viewBox="0 0 960 540" width="960" height="540" xmlns="http://www.w3.org/2000/svg" xmlns:xlink="http://www.w3.org/1999/xlink" version="1.1"><rect x="0" y="0" width="960" height="540" fill="#121212"></rect><path d="M0 319L22.8 327.5C45.7 336 91.3 353 137 357.5C182.7 362 228.3 354 274 356.8C319.7 359.7 365.3 373.3 411.2 374.5C457 375.7 503 364.3 548.8 355.7C594.7 347 640.3 341 686 347.2C731.7 353.3 777.3 371.7 823 374.2C868.7 376.7 914.3 363.3 937.2 356.7L960 350L960 541L937.2 541C914.3 541 868.7 541 823 541C777.3 541 731.7 541 686 541C640.3 541 594.7 541 548.8 541C503 541 457 541 411.2 541C365.3 541 319.7 541 274 541C228.3 541 182.7 541 137 541C91.3 541 45.7 541 22.8 541L0 541Z" fill="#860e96"></path><path d="M0 391L22.8 386.5C45.7 382 91.3 373 137 375.7C182.7 378.3 228.3 392.7 274 400C319.7 407.3 365.3 407.7 411.2 400.3C457 393 503 378 548.8 380C594.7 382 640.3 401 686 410C731.7 419 777.3 418 823 411C868.7 404 914.3 391 937.2 384.5L960 378L960 541L937.2 541C914.3 541 868.7 541 823 541C777.3 541 731.7 541 686 541C640.3 541 594.7 541 548.8 541C503 541 457 541 411.2 541C365.3 541 319.7 541 274 541C228.3 541 182.7 541 137 541C91.3 541 45.7 541 22.8 541L0 541Z" fill="#8818aa"></path><path d="M0 428L22.8 432.5C45.7 437 91.3 446 137 449.7C182.7 453.3 228.3 451.7 274 445.2C319.7 438.7 365.3 427.3 411.2 428.3C457 429.3 503 442.7 548.8 441C594.7 439.3 640.3 422.7 686 415.7C731.7 408.7 777.3 411.3 823 418C868.7 424.7 914.3 435.3 937.2 440.7L960 446L960 541L937.2 541C914.3 541 868.7 541 823 541C777.3 541 731.7 541 686 541C640.3 541 594.7 541 548.8 541C503 541 457 541 411.2 541C365.3 541 319.7 541 274 541C228.3 541 182.7 541 137 541C91.3 541 45.7 541 22.8 541L0 541Z" fill="#8823bf"></path><path d="M0 448L22.8 445.3C45.7 442.7 91.3 437.3 137 441.8C182.7 446.3 228.3 460.7 274 460.7C319.7 460.7 365.3 446.3 411.2 446.7C457 447 503 462 548.8 463.5C594.7 465 640.3 453 686 449.2C731.7 445.3 777.3 449.7 823 456.5C868.7 463.3 914.3 472.7 937.2 477.3L960 482L960 541L937.2 541C914.3 541 868.7 541 823 541C777.3 541 731.7 541 686 541C640.3 541 594.7 541 548.8 541C503 541 457 541 411.2 541C365.3 541 319.7 541 274 541C228.3 541 182.7 541 137 541C91.3 541 45.7 541 22.8 541L0 541Z" fill="#842ed6"></path><path d="M0 496L22.8 494.7C45.7 493.3 91.3 490.7 137 488.7C182.7 486.7 228.3 485.3 274 485.7C319.7 486 365.3 488 411.2 491.2C457 494.3 503 498.7 548.8 496C594.7 493.3 640.3 483.7 686 484.7C731.7 485.7 777.3 497.3 823 498.2C868.7 499 914.3 489 937.2 484L960 479L960 541L937.2 541C914.3 541 868.7 541 823 541C777.3 541 731.7 541 686 541C640.3 541 594.7 541 548.8 541C503 541 457 541 411.2 541C365.3 541 319.7 541 274 541C228.3 541 182.7 541 137 541C91.3 541 45.7 541 22.8 541L0 541Z" fill="#7c3aed"></path></svg>