<svg id="visual" viewBox="0 0 960 540" width="960" height="540" xmlns="http://www.w3.org/2000/svg" xmlns:xlink="http://www.w3.org/1999/xlink" version="1.1"><rect width="960" height="540" fill="#121212"></rect><g><g transform="translate(733 365)"><path d="M0 -98.4L98.4 0L0 98.4L-98.4 0Z" stroke="#a78bfa" fill="none" stroke-width="2"></path></g><g transform="translate(252 278)"><path d="M0 -75L75 0L0 75L-75 0Z" stroke="#a78bfa" fill="none" stroke-width="2"></path></g><g transform="translate(554 139)"><path d="M0 -58L58 0L0 58L-58 0Z" stroke="#a78bfa" fill="none" stroke-width="2"></path></g><g transform="translate(96 90)"><path d="M0 -56L56 0L0 56L-56 0Z" stroke="#a78bfa" fill="none" stroke-width="2"></path></g><g transform="translate(553 503)"><path d="M0 -58L58 0L0 58L-58 0Z" stroke="#a78bfa" fill="none" stroke-width="2"></path></g><g transform="translate(924 194)"><path d="M0 -54L54 0L0 54L-54 0Z" stroke="#a78bfa" fill="none" stroke-width="2"></path></g><g transform="translate(117 530)"><path d="M0 -87L87 0L0 87L-87 0Z" stroke="#a78bfa" fill="none" stroke-width="2"></path></g><g transform="translate(800 2)"><path d="M0 -91L91 0L0 91L-91 0Z" stroke="#a78bfa" fill="none" stroke-width="2"></path></g></g></svg>